<?xml version="1.0" encoding="UTF-8"?>
<svg version="1.1" viewBox="0 0 16 16" xmlns="http://www.w3.org/2000/svg">
 <title>FolderOpen_16x</title>
 <g id="canvas">
  <path id="_Compound_Path_" fill="#f6f6f6" fill-opacity="0" d="M0,0H16V16H0Z" data-name="&lt;Compound Path&gt;"/>
 </g>
 <g id="outline">
  <path fill="#f6f6f6" d="M0,2.969v9A1.944,1.944,0,0,0,.57,13.4,2.4,2.4,0,0,0,2,13.969H13.677L16,8.165v-1.2H15v-2a1.959,1.959,0,0,0-2-2H10.116l-1-2H2A1.942,1.942,0,0,0,0,2.969Z"/>
 </g>
 <g id="iconBg">
  <path fill="#dcb67a" d="M1,3v9a.958.958,0,0,0,1,.984H2V3H8L9,5h4V8H4L2,13H13l2-5H14V5c0-1-1.236-1-1-1H9.5l-1-2H2A.979.979,0,0,0,1,3Z"/>
 </g>
</svg>
